<?xml version="1.0" encoding="UTF-8"?>
<svg id="Layer_1" xmlns="http://www.w3.org/2000/svg" xmlns:xlink="http://www.w3.org/1999/xlink" viewBox="0 0 471.14 72.46">
  <defs>
    <style>
      .cls-1 {
        fill: url(#linear-gradient-15);
      }

      .cls-2 {
        fill: url(#linear-gradient-13);
      }

      .cls-3 {
        fill: url(#linear-gradient-2);
      }

      .cls-4 {
        fill: url(#linear-gradient-10);
      }

      .cls-5 {
        fill: url(#linear-gradient-12);
      }

      .cls-6 {
        fill: #ddcdf1;
      }

      .cls-7 {
        fill: url(#linear-gradient-4);
      }

      .cls-8 {
        fill: url(#linear-gradient-3);
      }

      .cls-9 {
        fill: url(#linear-gradient-5);
      }

      .cls-10 {
        fill: url(#linear-gradient-8);
      }

      .cls-11 {
        fill: url(#linear-gradient-14);
      }

      .cls-12 {
        fill: url(#linear-gradient-20);
      }

      .cls-13 {
        fill: #ebdfeb;
      }

      .cls-14 {
        fill: url(#linear-gradient-17);
      }

      .cls-15 {
        fill: url(#linear-gradient-7);
      }

      .cls-16 {
        fill: url(#linear-gradient-9);
      }

      .cls-17 {
        fill: url(#linear-gradient-11);
      }

      .cls-18 {
        fill: url(#linear-gradient-19);
      }

      .cls-19 {
        fill: url(#linear-gradient-6);
      }

      .cls-20 {
        fill: #eab7f3;
      }

      .cls-21 {
        fill: #cfbef2;
      }

      .cls-22 {
        fill: url(#linear-gradient-16);
      }

      .cls-23 {
        fill: url(#linear-gradient);
      }

      .cls-24 {
        fill: #c7b5f1;
      }

      .cls-25 {
        fill: #baa4f5;
      }

      .cls-26 {
        fill: url(#linear-gradient-18);
      }
    </style>
    <linearGradient id="linear-gradient" x1="471.14" y1="131.22" x2="171.14" y2="131.22" gradientTransform="translate(0 167.55) scale(1 -1)" gradientUnits="userSpaceOnUse">
      <stop offset=".3" stop-color="#9078ff"/>
      <stop offset=".7" stop-color="#0938fe"/>
    </linearGradient>
    <linearGradient id="linear-gradient-2" y1="131.32" y2="131.32" xlink:href="#linear-gradient"/>
    <linearGradient id="linear-gradient-3" y1="131.32" x2="171.14" y2="131.32" xlink:href="#linear-gradient"/>
    <linearGradient id="linear-gradient-4" y1="131.27" y2="131.27" xlink:href="#linear-gradient"/>
    <linearGradient id="linear-gradient-5" y1="131.32" y2="131.32" xlink:href="#linear-gradient"/>
    <linearGradient id="linear-gradient-6" y1="131.27" y2="131.27" xlink:href="#linear-gradient"/>
    <linearGradient id="linear-gradient-7" y1="131.32" y2="131.32" xlink:href="#linear-gradient"/>
    <linearGradient id="linear-gradient-8" x1="471.14" y1="131.32" x2="171.14" y2="131.32" xlink:href="#linear-gradient"/>
    <linearGradient id="linear-gradient-9" x1="119.3" y1="130.95" x2="134" y2="145.65" gradientTransform="translate(0 167.55) scale(1 -1)" gradientUnits="userSpaceOnUse">
      <stop offset="0" stop-color="#9f88f8"/>
      <stop offset="1" stop-color="#d2a8f4"/>
    </linearGradient>
    <linearGradient id="linear-gradient-10" x1="110.5" y1="45.4" x2="126.7" y2="29.2" gradientUnits="userSpaceOnUse">
      <stop offset="0" stop-color="#6062f9"/>
      <stop offset="1" stop-color="#c49ff7"/>
    </linearGradient>
    <linearGradient id="linear-gradient-11" x1="102.4" y1="114.05" x2="116.2" y2="127.85" gradientTransform="translate(0 167.55) scale(1 -1)" gradientUnits="userSpaceOnUse">
      <stop offset="0" stop-color="#4454fd"/>
      <stop offset="1" stop-color="#7a70f6"/>
    </linearGradient>
    <linearGradient id="linear-gradient-12" x1="78.24" y1="94.91" x2="93.54" y2="110.21" gradientTransform="translate(-34.61 68.97) rotate(45) scale(1 -1)" gradientUnits="userSpaceOnUse">
      <stop offset="0" stop-color="#0c37ff"/>
      <stop offset="1" stop-color="#4a57fd"/>
    </linearGradient>
    <linearGradient id="linear-gradient-13" x1="135.6" y1="133.45" x2="140.9" y2="133.45" gradientTransform="translate(0 167.55) scale(1 -1)" xlink:href="#linear-gradient-9"/>
    <linearGradient id="linear-gradient-14" x1="143.4" y1="140.6" x2="146.9" y2="140.6" gradientTransform="translate(0 167.55) scale(1 -1)" xlink:href="#linear-gradient-9"/>
    <linearGradient id="linear-gradient-15" x1="-118.8" y1="110.39" x2="-104.1" y2="125.09" gradientTransform="translate(-88.7 -74.53) rotate(-180) scale(1 -1)" xlink:href="#linear-gradient-9"/>
    <linearGradient id="linear-gradient-16" x1="-127.6" y1="65.96" x2="-111.4" y2="49.76" gradientTransform="translate(-88.7 93.01) rotate(-180)" xlink:href="#linear-gradient-10"/>
    <linearGradient id="linear-gradient-17" x1="-135.7" y1="93.49" x2="-121.9" y2="107.29" gradientTransform="translate(-88.7 -74.53) rotate(-180) scale(1 -1)" xlink:href="#linear-gradient-11"/>
    <linearGradient id="linear-gradient-18" x1="-159.86" y1="74.35" x2="-144.56" y2="89.65" gradientTransform="translate(1.11 -150.34) rotate(-135) scale(1 -1)" xlink:href="#linear-gradient-12"/>
    <linearGradient id="linear-gradient-19" x1="-102.5" y1="112.89" x2="-97.2" y2="112.89" gradientTransform="translate(-88.7 -74.53) rotate(-180) scale(1 -1)" xlink:href="#linear-gradient-9"/>
    <linearGradient id="linear-gradient-20" x1="-94.7" y1="120.04" x2="-91.2" y2="120.04" gradientTransform="translate(-88.7 -74.53) rotate(-180) scale(1 -1)" xlink:href="#linear-gradient-9"/>
  </defs>
  <g id="Layer_2">
    <g>
      <path class="cls-23" d="M190.84,55.13c-2.8,0-5.4-.5-7.8-1.4-2.4-.9-4.5-2.2-6.3-3.9-1.8-1.7-3.1-3.7-4.1-6s-1.5-4.8-1.5-7.5.5-5.2,1.5-7.5,2.4-4.3,4.2-6,3.9-3,6.3-3.9c2.4-.9,5-1.4,7.8-1.4s6,.5,8.6,1.6c2.5,1.1,4.7,2.7,6.4,4.8l-5.4,5c-1.2-1.4-2.6-2.5-4.2-3.2-1.5-.7-3.2-1.1-5-1.1s-3.3.3-4.7.8c-1.4.6-2.7,1.4-3.7,2.4s-1.8,2.3-2.4,3.7c-.6,1.4-.9,3-.9,4.7s.3,3.3.9,4.7c.6,1.4,1.4,2.7,2.4,3.7s2.3,1.8,3.7,2.4,3,.8,4.7.8,3.5-.4,5-1.1,2.9-1.8,4.2-3.2l5.4,5c-1.7,2.1-3.9,3.7-6.4,4.8-2.5,1.1-5.4,1.7-8.6,1.7l-.1.1Z"/>
      <path class="cls-3" d="M227.14,55.13c-2.9,0-5.5-.5-8-1.4-2.4-.9-4.6-2.3-6.3-4-1.8-1.7-3.2-3.7-4.2-6s-1.5-4.8-1.5-7.5.5-5.2,1.5-7.5,2.4-4.3,4.2-6c1.8-1.7,3.9-3,6.3-4,2.4-.9,5.1-1.4,7.9-1.4s5.5.5,7.9,1.4,4.5,2.3,6.3,4,3.2,3.7,4.2,6,1.5,4.8,1.5,7.5-.5,5.2-1.5,7.5-2.4,4.3-4.2,6c-1.8,1.7-3.9,3-6.3,3.9s-5,1.4-7.9,1.4l.1.1ZM227.14,47.93c1.6,0,3.1-.3,4.5-.8,1.4-.6,2.6-1.4,3.6-2.4s1.8-2.3,2.4-3.7c.6-1.4.9-3,.9-4.7s-.3-3.3-.9-4.7c-.6-1.4-1.4-2.7-2.4-3.7s-2.2-1.8-3.6-2.4-2.9-.8-4.5-.8-3.1.3-4.5.8c-1.4.6-2.6,1.4-3.6,2.4s-1.8,2.3-2.4,3.7c-.6,1.4-.9,3-.9,4.7s.3,3.3.9,4.7,1.4,2.7,2.4,3.7,2.2,1.8,3.6,2.4,2.9.8,4.5.8Z"/>
      <path class="cls-8" d="M253.34,54.43V18.03h16.5c4,0,7.4.8,10.4,2.3s5.4,3.6,7.1,6.3,2.5,5.9,2.5,9.6-.8,6.9-2.5,9.6-4.1,4.8-7.1,6.3-6.5,2.3-10.4,2.3h-16.5ZM261.74,47.53h7.7c2.4,0,4.5-.5,6.3-1.4s3.2-2.2,4.2-3.9c1-1.7,1.5-3.7,1.5-6s-.5-4.3-1.5-6-2.4-3-4.2-3.9c-1.8-.9-3.9-1.4-6.3-1.4h-7.7v22.6h0Z"/>
      <path class="cls-7" d="M296.34,54.43V18.03h27.5v6.8h-19.1v22.9h19.8v6.8h-28.2v-.1ZM304.04,39.33v-6.6h17.5v6.6h-17.5Z"/>
      <path class="cls-9" d="M331.14,54.43V18.03h17.8c4.6,0,8,.9,10.3,2.6s3.5,4,3.5,6.9-.5,3.6-1.4,5-2.2,2.5-3.8,3.2c-1.6.8-3.5,1.1-5.6,1.1l1-2.1c2.3,0,4.3.4,6.1,1.1s3.1,1.8,4.1,3.3,1.5,3.2,1.5,5.4c0,3.1-1.2,5.6-3.7,7.3s-6.1,2.6-10.9,2.6h-18.9ZM339.54,48.13h9.8c2.2,0,3.8-.4,5-1.1,1.1-.7,1.7-1.8,1.7-3.4s-.6-2.7-1.7-3.4c-1.1-.7-2.8-1.1-5-1.1h-10.4v-6.1h9c2,0,3.6-.4,4.7-1.1s1.6-1.8,1.6-3.2-.5-2.5-1.6-3.2-2.7-1.1-4.7-1.1h-8.4v23.7h0Z"/>
      <path class="cls-19" d="M370.94,54.43V18.03h27.5v6.8h-19.1v22.9h19.8v6.8h-28.2v-.1ZM378.74,39.33v-6.6h17.5v6.6h-17.5Z"/>
      <path class="cls-15" d="M405.84,54.43V18.03h15.5c5.1,0,9,1.2,11.8,3.5s4.2,5.6,4.2,9.7-.6,5-1.9,7-3.1,3.5-5.5,4.5-5.2,1.6-8.4,1.6h-11.1l3.7-3.7v13.8h-8.4.1ZM414.24,41.53l-3.7-4h10.6c2.6,0,4.5-.6,5.8-1.7s1.9-2.7,1.9-4.7-.6-3.6-1.9-4.7-3.2-1.7-5.8-1.7h-10.6l3.7-4v20.8ZM428.94,54.43l-9.1-13.2h9l9.2,13.2h-9.1Z"/>
      <path class="cls-10" d="M451.04,54.43v-29.5h-11.6v-6.9h31.7v6.9h-11.6v29.5h-8.5Z"/>
    </g>
    <g>
      <rect class="cls-13" x="76.8" y="8.7" width="14.8" height="15.7"/>
      <rect class="cls-6" x="86.9" y="8.7" width="14.8" height="15.7"/>
      <rect class="cls-21" x="98.2" y="8.7" width="14.8" height="15.7"/>
      <rect class="cls-24" x="109.2" y="8.7" width="14.8" height="15.7"/>
      <rect class="cls-25" x="119.2" y="8.7" width="14.8" height="15.7"/>
      <rect class="cls-20" x="126.9" y="14.2" width="14.8" height="14.8"/>
      <rect class="cls-16" x="119.2" y="21.9" width="14.8" height="14.8"/>
      <rect class="cls-4" x="110.5" y="29.2" width="16.2" height="16.2"/>
      <circle class="cls-17" cx="109.3" cy="46.6" r="9.8"/>
      <rect class="cls-5" x="87.87" y="46.38" width="21.6" height="21.6" transform="translate(-11.53 86.52) rotate(-45)"/>
      <rect class="cls-2" x="135.7" y="31.5" width="5.2" height="5.2"/>
      <rect class="cls-11" x="143.4" y="25.2" width="3.5" height="3.5"/>
      <rect class="cls-25" x="136.5" width="3.5" height="3.5"/>
      <rect class="cls-20" x="146.3" y="3.4" width="3.1" height="3.1"/>
      <rect class="cls-20" x="140.9" y="6.9" width="5.4" height="5.4"/>
    </g>
    <g>
      <rect class="cls-13" x="57.8" y="48.06" width="14.8" height="15.7"/>
      <rect class="cls-6" x="47.7" y="48.06" width="14.8" height="15.7"/>
      <rect class="cls-21" x="36.4" y="48.06" width="14.8" height="15.7"/>
      <rect class="cls-24" x="25.4" y="48.06" width="14.8" height="15.7"/>
      <rect class="cls-25" x="15.4" y="48.06" width="14.8" height="15.7"/>
      <rect class="cls-20" x="7.7" y="43.46" width="14.8" height="14.8"/>
      <rect class="cls-1" x="15.4" y="35.76" width="14.8" height="14.8"/>
      <rect class="cls-22" x="22.7" y="27.06" width="16.2" height="16.2"/>
      <circle class="cls-14" cx="40.1" cy="25.86" r="9.8"/>
      <rect class="cls-26" x="39.93" y="4.47" width="21.6" height="21.6" transform="translate(4.06 40.35) rotate(-45)"/>
      <rect class="cls-18" x="8.5" y="35.76" width="5.2" height="5.2"/>
      <rect class="cls-12" x="2.5" y="43.76" width="3.5" height="3.5"/>
      <rect class="cls-25" x="9.4" y="68.96" width="3.5" height="3.5"/>
      <rect class="cls-20" y="65.96" width="3.1" height="3.1"/>
      <rect class="cls-20" x="3.1" y="60.16" width="5.4" height="5.4"/>
    </g>
  </g>
</svg>