<?xml version="1.0" encoding="UTF-8"?>
<svg id="Layer_2" xmlns="http://www.w3.org/2000/svg" xmlns:xlink="http://www.w3.org/1999/xlink" viewBox="0 0 461.81 81.78">
  <defs>
    <style>
      .cls-1 {
        fill: #806930;
      }

      .cls-2 {
        fill: url(#linear-gradient-2);
      }

      .cls-3 {
        fill: url(#linear-gradient-10);
      }

      .cls-4 {
        fill: #efea50;
      }

      .cls-5 {
        fill: #e9a351;
      }

      .cls-6 {
        fill: url(#linear-gradient-4);
      }

      .cls-7 {
        fill: url(#linear-gradient-3);
      }

      .cls-8 {
        fill: url(#linear-gradient-5);
      }

      .cls-9 {
        fill: url(#linear-gradient-8);
      }

      .cls-10 {
        fill: #3f332d;
      }

      .cls-11 {
        fill: #aca137;
      }

      .cls-12 {
        fill: url(#linear-gradient-7);
      }

      .cls-13 {
        fill: url(#linear-gradient-9);
      }

      .cls-14 {
        fill: url(#linear-gradient-11);
      }

      .cls-15 {
        fill: #514426;
      }

      .cls-16 {
        fill: url(#linear-gradient-6);
      }

      .cls-17 {
        fill: #c1d43a;
      }

      .cls-18 {
        fill: url(#linear-gradient);
      }
    </style>
    <linearGradient id="linear-gradient" x1="461.81" y1="39.1" x2="161.87" y2="39.1" gradientUnits="userSpaceOnUse">
      <stop offset=".3" stop-color="#d94380"/>
      <stop offset=".7" stop-color="#efea50"/>
    </linearGradient>
    <linearGradient id="linear-gradient-2" x1="116.61" y1="36.67" x2="131.38" y2="21.9" gradientTransform="translate(94.71 153.28) rotate(-90)" gradientUnits="userSpaceOnUse">
      <stop offset="0" stop-color="#ecb843"/>
      <stop offset="1" stop-color="#ecb943"/>
    </linearGradient>
    <linearGradient id="linear-gradient-3" x1="99.73" y1="53.55" x2="113.57" y2="39.71" gradientUnits="userSpaceOnUse">
      <stop offset="0" stop-color="#df4e4c"/>
      <stop offset="1" stop-color="#e9a351"/>
    </linearGradient>
    <linearGradient id="linear-gradient-4" x1="75.63" y1="72.76" x2="90.92" y2="57.47" gradientTransform="translate(-8.92 70.12) rotate(-45)" gradientUnits="userSpaceOnUse">
      <stop offset="0" stop-color="#d9437f"/>
      <stop offset="1" stop-color="#e36850"/>
    </linearGradient>
    <linearGradient id="linear-gradient-5" x1="132.98" y1="34.17" x2="138.22" y2="34.17" gradientTransform="translate(101.43 169.77) rotate(-90)" xlink:href="#linear-gradient-2"/>
    <linearGradient id="linear-gradient-6" x1="140.79" y1="27.06" x2="144.28" y2="27.06" gradientTransform="translate(115.47 169.6) rotate(-90)" xlink:href="#linear-gradient-2"/>
    <linearGradient id="linear-gradient-7" x1="-126.41" y1="947.87" x2="-111.64" y2="933.1" gradientTransform="translate(-917.74 -66.53) rotate(-90)" xlink:href="#linear-gradient-2"/>
    <linearGradient id="linear-gradient-8" x1="-143.29" y1="964.76" x2="-129.46" y2="950.92" gradientTransform="translate(-96.28 992.98) rotate(-180)" xlink:href="#linear-gradient-3"/>
    <linearGradient id="linear-gradient-9" x1="-167.39" y1="983.96" x2="-152.1" y2="968.67" gradientTransform="translate(-526.67 -778.82) rotate(-45)" xlink:href="#linear-gradient-4"/>
    <linearGradient id="linear-gradient-10" x1="-110.04" y1="945.37" x2="-104.81" y2="945.37" gradientTransform="translate(-934.23 -59.82) rotate(-90)" xlink:href="#linear-gradient-2"/>
    <linearGradient id="linear-gradient-11" x1="-102.23" y1="938.27" x2="-98.74" y2="938.27" gradientTransform="translate(-934.06 -45.77) rotate(-90)" xlink:href="#linear-gradient-2"/>
  </defs>
  <g>
    <path class="cls-18" d="M181.57,57.92c-2.81,0-5.42-.46-7.82-1.38-2.41-.92-4.5-2.23-6.26-3.92-1.77-1.7-3.15-3.69-4.13-5.98-.99-2.29-1.48-4.8-1.48-7.54s.49-5.25,1.48-7.54,2.37-4.28,4.16-5.98c1.78-1.7,3.87-3.01,6.26-3.92,2.39-.92,5.01-1.38,7.85-1.38,3.15,0,6,.54,8.55,1.64,2.55,1.09,4.69,2.7,6.42,4.81l-5.41,4.99c-1.25-1.42-2.63-2.49-4.16-3.2-1.53-.71-3.19-1.07-4.99-1.07-1.7,0-3.26.28-4.68.83-1.42.55-2.65,1.35-3.69,2.39-1.04,1.04-1.85,2.27-2.42,3.69-.57,1.42-.86,3-.86,4.73s.29,3.31.86,4.73c.57,1.42,1.38,2.65,2.42,3.69,1.04,1.04,2.27,1.84,3.69,2.39,1.42.55,2.98.83,4.68.83,1.8,0,3.47-.36,4.99-1.07,1.52-.71,2.91-1.79,4.16-3.25l5.41,4.99c-1.73,2.11-3.87,3.73-6.42,4.83-2.55,1.11-5.42,1.66-8.6,1.66Z"/>
    <path class="cls-18" d="M217.86,57.92c-2.88,0-5.54-.47-7.98-1.4-2.44-.94-4.56-2.25-6.34-3.95-1.79-1.7-3.17-3.69-4.16-5.98-.99-2.29-1.48-4.78-1.48-7.49s.49-5.2,1.48-7.49,2.38-4.28,4.18-5.98c1.8-1.7,3.92-3.01,6.34-3.95,2.43-.94,5.06-1.4,7.9-1.4s5.52.47,7.93,1.4,4.5,2.25,6.29,3.95c1.78,1.7,3.18,3.68,4.18,5.95,1,2.27,1.51,4.77,1.51,7.51s-.5,5.21-1.51,7.51c-1.01,2.3-2.4,4.3-4.18,5.98-1.79,1.68-3.88,2.99-6.29,3.92-2.41.94-5.03,1.4-7.88,1.4ZM217.8,50.75c1.63,0,3.13-.28,4.5-.83,1.37-.55,2.57-1.35,3.61-2.39,1.04-1.04,1.85-2.27,2.42-3.69.57-1.42.86-3,.86-4.73s-.29-3.31-.86-4.73c-.57-1.42-1.37-2.65-2.39-3.69-1.02-1.04-2.23-1.84-3.61-2.39-1.39-.55-2.89-.83-4.52-.83s-3.13.28-4.5.83c-1.37.55-2.57,1.35-3.61,2.39-1.04,1.04-1.85,2.27-2.42,3.69-.57,1.42-.86,3-.86,4.73s.29,3.27.86,4.71,1.37,2.68,2.39,3.72c1.02,1.04,2.23,1.84,3.61,2.39,1.39.55,2.89.83,4.52.83Z"/>
    <path class="cls-18" d="M244.05,57.3V20.91h16.53c3.95,0,7.43.75,10.45,2.26,3.01,1.51,5.37,3.61,7.07,6.32s2.55,5.91,2.55,9.62-.85,6.87-2.55,9.59c-1.7,2.72-4.05,4.83-7.07,6.34-3.02,1.51-6.5,2.26-10.45,2.26h-16.53ZM252.48,50.38h7.69c2.42,0,4.53-.46,6.32-1.38,1.78-.92,3.17-2.23,4.16-3.92.99-1.7,1.48-3.69,1.48-5.98s-.49-4.32-1.48-6c-.99-1.68-2.38-2.98-4.16-3.9-1.79-.92-3.89-1.38-6.32-1.38h-7.69v22.56Z"/>
    <path class="cls-18" d="M286.99,57.3V20.91h27.5v6.76h-19.13v22.87h19.81v6.76h-28.18ZM294.74,42.12v-6.55h17.52v6.55h-17.52Z"/>
    <path class="cls-18" d="M321.87,57.3V20.91h17.78c4.58,0,8.01.87,10.32,2.6,2.3,1.73,3.46,4.02,3.46,6.86,0,1.91-.47,3.56-1.4,4.96-.94,1.4-2.22,2.49-3.85,3.25-1.63.76-3.5,1.14-5.61,1.14l.99-2.13c2.29,0,4.31.37,6.08,1.12s3.14,1.85,4.13,3.3c.99,1.46,1.48,3.24,1.48,5.35,0,3.12-1.23,5.55-3.69,7.3s-6.08,2.62-10.86,2.62h-18.82ZM330.24,50.95h9.82c2.18,0,3.84-.36,4.96-1.07,1.13-.71,1.69-1.85,1.69-3.41s-.56-2.66-1.69-3.41c-1.13-.74-2.78-1.12-4.96-1.12h-10.45v-6.13h8.99c2.04,0,3.61-.36,4.7-1.07,1.09-.71,1.64-1.79,1.64-3.25s-.55-2.49-1.64-3.2c-1.09-.71-2.66-1.07-4.7-1.07h-8.37v23.71Z"/>
    <path class="cls-18" d="M361.64,57.3V20.91h27.5v6.76h-19.13v22.87h19.81v6.76h-28.18ZM369.39,42.12v-6.55h17.52v6.55h-17.52Z"/>
    <path class="cls-18" d="M396.52,57.3V20.91h15.54c5.06,0,8.99,1.17,11.8,3.51,2.81,2.34,4.21,5.57,4.21,9.7,0,2.7-.64,5.03-1.92,6.99-1.28,1.96-3.1,3.46-5.46,4.5s-5.16,1.56-8.42,1.56h-11.07l3.74-3.69v13.83h-8.42ZM404.94,44.4l-3.74-3.95h10.6c2.6,0,4.54-.56,5.82-1.69,1.28-1.13,1.92-2.68,1.92-4.65s-.64-3.57-1.92-4.68c-1.28-1.11-3.22-1.66-5.82-1.66h-10.6l3.74-4v20.64ZM419.65,57.3l-9.1-13.2h8.99l9.2,13.2h-9.1Z"/>
    <path class="cls-18" d="M441.75,57.3v-29.53h-11.64v-6.86h31.71v6.86h-11.64v29.53h-8.42Z"/>
  </g>
  <g>
    <g>
      <rect class="cls-10" x="73.74" y="9.24" width="15.72" height="14.77" transform="translate(98.22 -64.98) rotate(90)"/>
      <rect class="cls-15" x="83.83" y="9.24" width="15.72" height="14.77" transform="translate(108.31 -75.06) rotate(90)"/>
      <rect class="cls-1" x="95.12" y="9.24" width="15.72" height="14.77" transform="translate(119.61 -86.36) rotate(90)"/>
      <rect class="cls-11" x="106.06" y="9.24" width="15.72" height="14.77" transform="translate(130.55 -97.3) rotate(90)"/>
      <rect class="cls-17" x="116.08" y="9.24" width="15.72" height="14.77" transform="translate(140.57 -107.32) rotate(90)"/>
      <rect class="cls-4" x="124.26" y="14.25" width="14.77" height="14.77" transform="translate(153.28 -110.01) rotate(90)"/>
      <rect class="cls-2" x="116.61" y="21.9" width="14.77" height="14.77" transform="translate(153.28 -94.71) rotate(90)"/>
      <rect class="cls-5" x="107.83" y="29.27" width="16.17" height="16.17" transform="translate(153.28 -78.56) rotate(90)"/>
      <circle class="cls-7" cx="106.65" cy="46.63" r="9.78"/>
      <rect class="cls-6" x="85.2" y="46.47" width="21.62" height="21.62" transform="translate(68.62 -51.11) rotate(45)"/>
      <rect class="cls-8" x="132.98" y="31.55" width="5.23" height="5.23" transform="translate(169.77 -101.43) rotate(90)"/>
      <rect class="cls-16" x="140.79" y="25.32" width="3.49" height="3.49" transform="translate(169.6 -115.47) rotate(90)"/>
      <rect class="cls-17" x="133.85" y="0" width="3.49" height="3.49" transform="translate(137.34 -133.85) rotate(90)"/>
      <rect class="cls-4" x="143.69" y="3.49" width="3.05" height="3.05" transform="translate(150.23 -140.2) rotate(90)"/>
      <rect class="cls-4" x="138.32" y="6.93" width="5.37" height="5.37" transform="translate(150.62 -131.39) rotate(90)"/>
    </g>
    <g>
      <rect class="cls-10" x="57.28" y="57.77" width="15.72" height="14.77" transform="translate(-.01 130.3) rotate(-90)"/>
      <rect class="cls-15" x="47.2" y="57.77" width="15.72" height="14.77" transform="translate(-10.1 120.21) rotate(-90)"/>
      <rect class="cls-1" x="35.9" y="57.77" width="15.72" height="14.77" transform="translate(-21.4 108.91) rotate(-90)"/>
      <rect class="cls-11" x="24.96" y="57.77" width="15.72" height="14.77" transform="translate(-32.34 97.97) rotate(-90)"/>
      <rect class="cls-17" x="14.94" y="57.77" width="15.72" height="14.77" transform="translate(-42.36 87.96) rotate(-90)"/>
      <rect class="cls-4" x="7.71" y="52.76" width="14.77" height="14.77" transform="translate(-45.05 75.24) rotate(-90)"/>
      <rect class="cls-12" x="15.36" y="45.11" width="14.77" height="14.77" transform="translate(-29.75 75.24) rotate(-90)"/>
      <rect class="cls-5" x="22.73" y="36.33" width="16.17" height="16.17" transform="translate(-13.6 75.24) rotate(-90)"/>
      <circle class="cls-9" cx="40.09" cy="35.15" r="9.78"/>
      <rect class="cls-13" x="39.93" y="13.69" width="21.62" height="21.62" transform="translate(69.29 77.71) rotate(-135)"/>
      <rect class="cls-3" x="8.53" y="44.99" width="5.23" height="5.23" transform="translate(-36.47 58.75) rotate(-90)"/>
      <rect class="cls-14" x="2.46" y="52.97" width="3.49" height="3.49" transform="translate(-50.51 58.92) rotate(-90)"/>
      <rect class="cls-17" x="9.4" y="78.29" width="3.49" height="3.49" transform="translate(-68.89 91.18) rotate(-90)"/>
      <rect class="cls-4" x="0" y="75.24" width="3.05" height="3.05" transform="translate(-75.24 78.29) rotate(-90)"/>
      <rect class="cls-4" x="3.05" y="69.48" width="5.37" height="5.37" transform="translate(-66.43 77.9) rotate(-90)"/>
    </g>
  </g>
</svg>